<svg id="Layer_1" data-name="Layer 1" xmlns="http://www.w3.org/2000/svg" xmlns:xlink="http://www.w3.org/1999/xlink" viewBox="0 0 411.77 72.9"><defs><style>.cls-1{fill:url(#linear-gradient);}</style><linearGradient id="linear-gradient" x1="46.12" y1="202.11" x2="457.89" y2="202.11" gradientUnits="userSpaceOnUse"><stop offset="0" stop-color="#a445b2"/><stop offset="0.52" stop-color="#d41872"/><stop offset="1" stop-color="#f06"/></linearGradient></defs><title>planapp</title><path class="cls-1" d="M46.12,229.09V176.26c0-6,3.32-9.38,9-9.38H76.64c15.13,0,25.39,9.82,25.39,25s-10.79,24.86-26.47,24.86H64v12.4c0,6-3.27,9.32-8.94,9.32S46.12,235.05,46.12,229.09ZM71.8,203.21c7.62,0,12.11-4,12.11-11.33s-4.49-11.28-12-11.28H64v22.61Z" transform="translate(-46.12 -165.66)"/><path class="cls-1" d="M110,228V175.13c0-5.95,3.32-9.32,9-9.32s8.94,3.37,8.94,9.32v47.76H150c4.78,0,8,2.63,8,7.22s-3.12,7.23-8,7.23H119C113.31,237.34,110,233.92,110,228Z" transform="translate(-46.12 -165.66)"/><path class="cls-1" d="M163.16,229.87a19.05,19.05,0,0,1,1.27-5.86l17.38-47.75c2.59-7.18,6.94-10.45,13.92-10.45,7.37,0,11.67,3.12,14.35,10.45L227.61,224a16.2,16.2,0,0,1,1.17,5.81c0,5-3.76,8.59-9,8.59s-7.86-2.34-9.42-8.1L208,222.5H183.86L181.47,230c-1.71,5.95-4.39,8.39-9.18,8.39C166.63,238.41,163.16,235.19,163.16,229.87ZM204.08,209l-8.25-27.15h-.4l-8,27.15Z" transform="translate(-46.12 -165.66)"/><path class="cls-1" d="M237.38,229.53V174.3c0-5.51,3.12-8.49,8.69-8.49,3.42,0,5.86,1.46,8.54,5l27,37.06H282V174.69c0-5.71,3.17-8.88,8.49-8.88s8.5,3.17,8.5,8.88V230c0,5.42-3,8.39-8.45,8.39-3.61,0-6-1.41-8.59-5L254.76,196h-.39v33.55c0,5.71-3.17,8.88-8.5,8.88S237.38,235.24,237.38,229.53Z" transform="translate(-46.12 -165.66)"/><path class="cls-1" d="M309.59,229.09v-54c0-5.95,3.33-9.32,9-9.32s8.93,3.37,8.93,9.32v54c0,6-3.27,9.32-8.93,9.32S309.59,235.05,309.59,229.09Z" transform="translate(-46.12 -165.66)"/><path class="cls-1" d="M337.92,225.52a11,11,0,0,1-.93-4.44c0-4.49,3.22-7.52,7.76-7.52,3.47,0,5.81,1.22,8.11,4.74,2.39,4.39,7.13,6.25,12.79,6.25,7,0,11.52-3.13,11.52-7.42,0-3.91-3-5.91-11.33-7.52l-7.27-1.37c-14-2.64-21.34-9.52-21.34-20.26,0-13.58,11.77-22.32,28-22.32,13.48,0,23.34,5.18,26.76,14.11a9.83,9.83,0,0,1,.73,3.86c0,4.15-3,6.93-7.52,7-3.91,0-6.35-1.41-8.45-4.83-2.29-4.4-6.2-6.11-11.37-6.11-6.5,0-10.31,2.93-10.31,7.08,0,3.72,3.18,5.77,10.84,7.23l7.23,1.37c15,2.88,21.88,9,21.88,20.07,0,14.16-11.09,23.14-29.64,23.14C350.07,238.56,340.84,232.8,337.92,225.52Z" transform="translate(-46.12 -165.66)"/><path class="cls-1" d="M419.65,229.09V181.33H407.3c-4.79,0-8-2.63-8-7.22s3.13-7.23,8-7.23h42.63c4.83,0,8,2.64,8,7.23s-3.23,7.22-8,7.22H437.52v47.76c0,6-3.27,9.32-8.93,9.32S419.65,235.05,419.65,229.09Z" transform="translate(-46.12 -165.66)"/></svg>